<svg 
 xmlns="http://www.w3.org/2000/svg"
 xmlns:xlink="http://www.w3.org/1999/xlink"
 width="20px" height="20px">
<path fill-rule="evenodd"  fill="rgb(255, 228, 0)"
 d="M10.000,-0.000 C15.523,-0.000 20.000,4.477 20.000,10.000 C20.000,15.523 15.523,20.000 10.000,20.000 C4.477,20.000 -0.000,15.523 -0.000,10.000 C-0.000,4.477 4.477,-0.000 10.000,-0.000 Z"/>
<path fill-rule="evenodd"  fill="rgb(49, 64, 75)"
 d="M8.984,9.492 L7.492,10.983 L6.000,9.492 L4.508,10.983 L3.016,9.492 L4.508,8.000 L3.016,6.508 L4.508,5.016 L6.000,6.508 L7.492,5.016 L8.984,6.508 L7.492,8.000 L8.984,9.492 Z"/>
<path fill-rule="evenodd"  fill="rgb(49, 64, 75)"
 d="M16.984,9.492 L15.492,10.983 L14.000,9.492 L12.508,10.983 L11.016,9.492 L12.508,8.000 L11.016,6.508 L12.508,5.016 L14.000,6.508 L15.492,5.016 L16.984,6.508 L15.492,8.000 L16.984,9.492 Z"/>
<path fill-rule="evenodd"  fill="rgb(49, 64, 75)"
 d="M10.000,12.000 C11.105,12.000 12.000,12.895 12.000,14.000 C12.000,15.104 11.105,16.000 10.000,16.000 C8.895,16.000 8.000,15.104 8.000,14.000 C8.000,12.895 8.895,12.000 10.000,12.000 Z"/>
</svg>
