<svg
 xmlns="http://www.w3.org/2000/svg"
 xmlns:xlink="http://www.w3.org/1999/xlink"
 width="16px" height="22px">
<path fill-rule="evenodd"  fill="rgb(186, 193, 200)"
 d="M-0.000,4.831 C-0.000,4.831 0.284,8.437 0.568,9.854 C0.852,11.271 0.947,14.556 1.515,16.038 C2.083,17.519 2.031,18.937 2.000,20.000 C1.968,21.062 1.799,21.994 3.030,21.994 C4.260,21.994 8.899,21.994 8.899,21.994 C8.899,21.994 10.000,21.902 10.000,21.000 C10.000,20.098 10.000,19.000 10.000,19.000 C10.000,19.000 9.747,18.869 10.000,17.999 C10.252,17.130 10.227,16.054 11.172,14.878 C12.509,13.213 15.387,10.783 15.000,9.000 C14.627,7.285 12.694,9.678 12.000,10.000 C11.306,10.322 10.509,10.530 10.604,9.274 C10.698,8.019 11.014,2.479 10.982,1.932 C10.951,1.385 10.073,0.389 9.000,2.000 L9.000,5.000 L8.000,5.000 C8.000,5.000 7.795,1.175 7.763,0.966 C7.732,0.757 7.495,-0.000 6.627,-0.000 C5.759,-0.000 6.000,0.516 6.000,1.000 C6.000,1.284 6.000,6.000 6.000,6.000 L5.000,6.000 C5.000,6.000 5.002,1.997 4.923,1.545 C4.844,1.095 4.245,0.644 3.598,0.966 C2.951,1.288 2.984,1.969 3.000,3.000 C3.016,4.030 3.000,10.000 3.000,10.000 C3.000,10.000 2.193,3.333 0.947,3.671 C0.947,3.671 0.095,3.945 -0.000,4.831 Z"/>
<path fill-rule="evenodd"  fill="rgb(144, 153, 162)"
 d="M1.000,16.000 L11.000,16.000 C11.552,16.000 12.000,16.537 12.000,17.200 L12.000,20.800 C12.000,21.463 11.552,22.000 11.000,22.000 L1.000,22.000 C0.448,22.000 -0.000,21.463 -0.000,20.800 L-0.000,17.200 C-0.000,16.537 0.448,16.000 1.000,16.000 Z"/>
<path fill-rule="evenodd"  fill="rgb(194, 255, 31)"
 d="M2.000,17.999 L7.000,17.999 C7.552,17.999 8.000,18.298 8.000,18.667 L8.000,19.333 C8.000,19.701 7.552,20.000 7.000,20.000 L2.000,20.000 C1.448,20.000 1.000,19.701 1.000,19.333 L1.000,18.667 C1.000,18.298 1.448,17.999 2.000,17.999 Z"/>
</svg>
