<svg
 xmlns="http://www.w3.org/2000/svg"
 xmlns:xlink="http://www.w3.org/1999/xlink"
 width="16px" height="16px">
<path fill-rule="evenodd"  fill="rgb(193, 35, 35)"
 d="M8.000,-0.001 C12.418,-0.001 16.000,3.580 16.000,7.998 C16.000,12.417 12.418,15.998 8.000,15.998 C3.581,15.998 -0.000,12.417 -0.000,7.998 C-0.000,3.580 3.581,-0.001 8.000,-0.001 Z"/>
<path fill-rule="evenodd"  fill="rgb(248, 250, 252)"
 d="M7.982,0.525 C12.099,0.525 15.436,3.863 15.436,7.980 C15.436,12.097 12.099,15.435 7.982,15.435 C3.865,15.435 0.527,12.097 0.527,7.980 C0.527,3.863 3.865,0.525 7.982,0.525 Z"/>
<path fill-rule="evenodd"  opacity="0.6" fill="rgb(64, 72, 75)"
 d="M13.687,11.643 L13.513,11.590 L14.567,8.136 L14.741,8.189 L13.687,11.643 ZM10.280,7.058 L13.244,6.076 L13.301,6.248 L10.337,7.230 L10.280,7.058 ZM10.240,1.892 L10.342,1.741 L13.196,3.669 L13.094,3.819 L10.240,1.892 ZM11.128,12.291 L9.237,9.891 L9.380,9.778 L11.271,12.179 L11.128,12.291 ZM7.909,2.526 L8.091,2.526 L8.091,6.635 L7.909,6.635 L7.909,2.526 ZM4.144,13.128 L6.453,9.909 L6.601,10.015 L4.292,13.233 L4.144,13.128 ZM2.772,6.358 L2.828,6.185 L5.937,7.185 L5.881,7.358 L2.772,6.358 ZM2.675,3.706 L5.602,1.669 L5.706,1.819 L2.779,3.855 L2.675,3.706 ZM1.185,8.131 L1.360,8.084 L2.379,11.884 L2.203,11.931 L1.185,8.131 ZM10.309,14.399 L6.127,14.399 L6.127,14.217 L10.309,14.217 L10.309,14.399 Z"/>
<path fill-rule="evenodd"  fill="rgb(221, 77, 77)"
 d="M7.982,5.280 L10.515,7.121 L9.547,10.099 L6.416,10.099 L5.448,7.121 L7.982,5.280 Z"/>
<path fill-rule="evenodd"  fill="rgb(221, 77, 77)"
 d="M7.991,2.817 L10.527,1.934 L10.218,0.508 L5.763,0.508 L5.455,1.934 L7.991,2.817 Z"/>
<path fill-rule="evenodd"  fill="rgb(221, 77, 77)"
 d="M12.904,6.305 L14.546,8.429 L15.801,7.683 L14.386,3.460 L12.935,3.620 L12.904,6.305 Z"/>
<path fill-rule="evenodd"  fill="rgb(221, 77, 77)"
 d="M2.982,6.295 L1.343,8.417 L0.091,7.671 L1.503,3.453 L2.951,3.614 L2.982,6.295 Z"/>
<path fill-rule="evenodd"  fill="rgb(221, 77, 77)"
 d="M4.807,12.191 L6.412,14.337 L5.359,15.344 L1.673,12.854 L2.215,11.502 L4.807,12.191 Z"/>
<path fill-rule="evenodd"  fill="rgb(221, 77, 77)"
 d="M11.121,12.143 L9.570,14.328 L10.651,15.305 L14.275,12.722 L13.696,11.387 L11.121,12.143 Z"/>
</svg>
