<svg 
 xmlns="http://www.w3.org/2000/svg"
 xmlns:xlink="http://www.w3.org/1999/xlink"
 width="20px" height="20px">
<path fill-rule="evenodd"  fill="rgb(0, 91, 161)"
 d="M17.063,2.905 C20.974,6.815 20.974,13.156 17.063,17.066 C13.152,20.977 6.811,20.977 2.900,17.066 C-1.011,13.156 -1.011,6.815 2.900,2.905 C6.811,-1.006 13.152,-1.006 17.063,2.905 Z"/>
<path fill-rule="evenodd"  fill="rgb(255, 255, 255)"
 d="M15.628,4.340 C18.747,7.458 18.747,12.513 15.628,15.631 C12.510,18.750 7.454,18.750 4.336,15.631 C1.217,12.513 1.217,7.458 4.336,4.340 C7.454,1.222 12.510,1.222 15.628,4.340 Z"/>
<path fill-rule="evenodd"  fill="rgb(0, 91, 161)"
 d="M14.243,5.757 C16.587,8.101 16.587,11.902 14.243,14.246 C11.898,16.590 8.097,16.590 5.753,14.246 C3.408,11.902 3.408,8.101 5.753,5.757 C8.097,3.412 11.898,3.412 14.243,5.757 Z"/>
<path fill-rule="evenodd"  fill="rgb(255, 255, 255)"
 d="M12.809,7.148 C14.371,8.710 14.371,11.242 12.809,12.804 C11.247,14.366 8.715,14.366 7.153,12.804 C5.591,11.242 5.591,8.710 7.153,7.148 C8.715,5.586 11.247,5.586 12.809,7.148 Z"/>
<path fill-rule="evenodd"  fill="rgb(255, 228, 0)"
 d="M11.407,8.565 C12.186,9.349 12.186,10.621 11.407,11.406 C10.629,12.191 9.367,12.191 8.588,11.406 C7.810,10.621 7.810,9.349 8.588,8.565 C9.367,7.780 10.629,7.780 11.407,8.565 Z"/>
<path fill-rule="evenodd"  opacity="0.102" fill="rgb(28, 28, 28)"
 d="M9.806,9.597 L18.102,17.893 C18.267,18.057 18.267,18.323 18.102,18.488 C17.938,18.652 17.671,18.652 17.507,18.488 L9.211,10.192 L9.806,9.597 Z"/>
<path fill-rule="evenodd"  fill="rgb(43, 65, 77)"
 d="M9.211,10.197 L17.446,1.962 C17.610,1.799 17.874,1.799 18.037,1.962 C18.201,2.126 18.201,2.390 18.037,2.553 L9.802,10.788 L9.211,10.197 Z"/>
<path fill-rule="evenodd"  fill="rgb(255, 205, 47)"
 d="M17.619,0.000 L17.135,2.270 L14.754,4.650 L15.238,2.381 L17.619,0.000 Z"/>
<path fill-rule="evenodd"  fill="rgb(255, 205, 47)"
 d="M19.999,2.381 L17.730,2.865 L15.349,5.245 L17.619,4.762 L19.999,2.381 Z"/>
</svg>
