<svg
 xmlns="http://www.w3.org/2000/svg"
 xmlns:xlink="http://www.w3.org/1999/xlink"
 width="130px" height="122px">
<path fill-rule="evenodd"  fill="rgb(250, 253, 255)"
 d="M129.104,70.192 L127.690,71.606 L118.497,62.414 L110.012,70.899 L119.205,80.092 L117.790,81.506 L108.598,72.314 L100.113,80.799 L109.305,89.991 L107.891,91.405 L98.699,82.213 L90.213,90.698 L99.406,99.891 L97.991,101.305 L88.799,92.113 L80.314,100.598 L89.506,109.790 L88.092,111.204 L78.899,102.012 L70.414,110.497 L79.607,119.690 L78.192,121.104 L69.000,111.912 L59.808,121.104 L58.393,119.690 L67.586,110.497 L59.100,102.012 L49.908,111.204 L48.494,109.790 L57.686,100.598 L49.201,92.113 L40.009,101.305 L38.594,99.891 L47.787,90.698 L39.301,82.213 L30.109,91.405 L28.695,89.991 L37.887,80.799 L29.402,72.314 L20.210,81.506 L18.795,80.092 L27.988,70.899 L19.502,62.414 L10.310,71.606 L8.896,70.192 L18.088,61.000 L8.896,51.807 L10.310,50.393 L19.502,59.586 L27.988,51.100 L18.795,41.908 L20.210,40.494 L29.402,49.686 L37.887,41.201 L28.695,32.008 L30.109,30.594 L39.301,39.787 L47.787,31.301 L38.594,22.109 L40.009,20.695 L49.201,29.887 L57.686,21.402 L48.494,12.210 L49.908,10.795 L59.101,19.988 L67.586,11.502 L58.393,2.310 L59.808,0.896 L69.000,10.088 L78.192,0.896 L79.607,2.310 L70.414,11.502 L78.899,19.988 L88.092,10.795 L89.506,12.210 L80.314,21.402 L88.799,29.887 L97.991,20.695 L99.406,22.109 L90.213,31.301 L98.698,39.787 L107.891,30.594 L109.305,32.008 L100.113,41.201 L108.598,49.686 L117.790,40.494 L119.205,41.908 L110.012,51.100 L118.497,59.586 L127.690,50.393 L129.104,51.807 L119.912,61.000 L129.104,70.192 ZM107.184,70.899 L98.698,62.414 L90.213,70.899 L98.698,79.385 L107.184,70.899 ZM70.414,70.899 L78.899,79.385 L87.385,70.899 L78.900,62.414 L70.414,70.899 ZM77.485,61.000 L69.000,52.514 L60.515,61.000 L69.000,69.485 L77.485,61.000 ZM69.000,72.314 L60.515,80.799 L69.000,89.284 L77.485,80.799 L69.000,72.314 ZM67.586,70.899 L59.100,62.414 L50.615,70.899 L59.100,79.385 L67.586,70.899 ZM57.686,61.000 L49.201,52.515 L40.716,61.000 L49.201,69.485 L57.686,61.000 ZM59.101,59.586 L67.586,51.100 L59.101,42.615 L50.615,51.100 L59.101,59.586 ZM69.000,49.686 L77.485,41.201 L69.000,32.716 L60.515,41.201 L69.000,49.686 ZM70.414,51.100 L78.899,59.586 L87.385,51.100 L78.899,42.615 L70.414,51.100 ZM80.314,61.000 L88.799,69.485 L97.284,61.000 L88.799,52.515 L80.314,61.000 ZM88.799,89.284 L97.284,80.799 L88.799,72.313 L80.314,80.799 L88.799,89.284 ZM78.899,99.184 L87.385,90.698 L78.899,82.213 L70.414,90.698 L78.899,99.184 ZM69.000,109.083 L77.485,100.598 L69.000,92.112 L60.515,100.598 L69.000,109.083 ZM59.100,99.184 L67.586,90.698 L59.101,82.213 L50.615,90.698 L59.100,99.184 ZM49.201,89.284 L57.686,80.799 L49.201,72.313 L40.716,80.799 L49.201,89.284 ZM39.301,79.385 L47.787,70.899 L39.301,62.414 L30.816,70.899 L39.301,79.385 ZM20.917,61.000 L29.402,69.485 L37.887,61.000 L29.402,52.515 L20.917,61.000 ZM39.301,42.615 L30.816,51.100 L39.301,59.586 L47.787,51.100 L39.301,42.615 ZM40.716,41.201 L49.201,49.686 L57.686,41.201 L49.201,32.715 L40.716,41.201 ZM59.100,22.816 L50.615,31.301 L59.100,39.787 L67.586,31.301 L59.100,22.816 ZM69.000,12.917 L60.515,21.402 L69.000,29.887 L77.485,21.402 L69.000,12.917 ZM78.899,22.816 L70.414,31.301 L78.900,39.787 L87.385,31.301 L78.899,22.816 ZM88.799,32.715 L80.314,41.201 L88.799,49.686 L97.284,41.201 L88.799,32.715 ZM98.698,42.615 L90.213,51.100 L98.698,59.586 L107.184,51.100 L98.698,42.615 ZM108.598,52.515 L100.113,61.000 L108.598,69.485 L117.083,61.000 L108.598,52.515 Z"/>
<path fill-rule="evenodd"  fill="rgb(211, 217, 224)"
 d="M83.952,21.526 L66.548,21.526 L28.667,21.526 C24.143,21.526 20.476,25.202 20.476,29.737 L20.476,70.789 L20.476,73.868 L20.476,79.000 L8.190,79.000 C3.667,79.000 -0.000,75.324 -0.000,70.789 L-0.000,9.210 C-0.000,4.676 3.667,1.000 8.190,1.000 L77.809,1.000 C82.333,1.000 86.000,4.676 86.000,9.210 L86.000,21.526 L83.952,21.526 Z"/>
<path fill-rule="evenodd"  fill="rgb(241, 245, 248)"
 d="M84.000,23.000 L67.000,23.000 L30.000,23.000 C25.582,23.000 22.000,26.582 22.000,31.000 L22.000,71.000 L22.000,74.000 L22.000,79.000 L10.000,79.000 C5.582,79.000 2.000,75.418 2.000,71.000 L2.000,11.000 C2.000,6.582 5.582,3.000 10.000,3.000 L78.000,3.000 C82.418,3.000 86.000,6.582 86.000,11.000 L86.000,23.000 L84.000,23.000 Z"/>
<path fill-rule="evenodd"  fill="rgb(220, 223, 226)"
 d="M96.000,35.000 L79.000,35.000 L42.000,35.000 C37.582,35.000 34.000,38.582 34.000,43.000 L34.000,83.000 L34.000,86.000 L34.000,91.000 L22.000,91.000 C17.582,91.000 14.000,87.418 14.000,83.000 L14.000,23.000 C14.000,18.581 17.582,15.000 22.000,15.000 L90.000,15.000 C94.418,15.000 98.000,18.581 98.000,23.000 L98.000,35.000 L96.000,35.000 Z"/>
</svg>
