<svg
 xmlns="http://www.w3.org/2000/svg"
 xmlns:xlink="http://www.w3.org/1999/xlink"
 width="32px" height="32px">
<path fill-rule="evenodd"  fill="rgb(64, 172, 255)"
 d="M16.000,31.992 C16.000,31.992 16.000,31.992 16.000,31.992 C14.908,31.967 11.088,31.795 9.243,31.623 C7.398,31.451 7.294,31.254 7.294,31.254 L7.294,30.639 C7.398,28.573 7.944,26.334 7.944,26.334 C8.983,21.979 8.619,17.994 8.074,16.124 C7.528,14.255 7.554,12.164 7.554,11.943 C7.554,11.721 7.424,11.204 7.424,11.204 C7.164,11.450 5.886,13.767 5.735,14.033 C5.583,14.300 4.955,13.788 4.955,13.788 C3.786,12.680 1.252,11.799 0.537,11.573 C-0.177,11.348 0.018,11.081 0.018,11.081 L1.967,7.268 C4.111,3.086 5.507,2.563 7.294,2.225 C8.596,1.979 9.858,1.471 10.701,1.000 L11.515,1.000 C11.469,1.340 11.560,1.707 12.000,2.000 C13.125,2.750 16.000,4.125 16.000,5.000 C16.000,5.000 16.000,5.000 16.000,5.000 L16.000,31.992 Z"/>
<path fill-rule="evenodd"  fill="rgb(88, 107, 121)"
 d="M31.439,11.591 C30.725,11.816 28.195,12.697 27.028,13.803 C27.028,13.803 26.401,14.315 26.249,14.049 C26.098,13.782 24.822,11.468 24.563,11.222 C24.563,11.222 24.433,11.738 24.433,11.959 C24.433,12.180 24.459,14.270 23.914,16.138 C23.369,18.006 23.006,21.988 24.044,26.339 C24.044,26.339 24.589,28.575 24.693,30.640 L24.693,31.255 C24.693,31.255 24.589,31.451 22.746,31.623 C20.904,31.795 17.090,31.967 16.000,31.992 L16.000,5.000 C16.000,4.125 18.556,2.750 19.556,2.000 C19.947,1.707 20.025,1.340 19.985,1.000 L21.242,1.000 C22.083,1.478 23.369,1.999 24.693,2.250 C26.476,2.588 27.871,3.110 30.012,7.289 L31.958,11.099 C31.958,11.099 32.152,11.365 31.439,11.591 Z"/>
<path fill-rule="evenodd"  fill="rgb(88, 107, 121)"
 d="M20.528,2.505 C19.669,3.228 19.254,3.242 18.809,3.525 C18.470,3.741 16.845,4.375 15.985,4.998 C15.132,4.375 13.517,3.741 13.181,3.525 C12.739,3.242 12.327,3.228 11.474,2.505 C10.620,1.783 11.230,0.806 11.230,0.806 L11.469,0.287 C11.780,0.920 12.265,1.625 13.000,2.000 C14.531,2.781 16.031,3.500 16.000,4.000 C15.966,3.500 17.593,2.781 19.254,2.000 C20.172,1.568 20.373,0.705 20.377,0.012 L20.405,0.012 L20.774,0.806 C20.774,0.806 21.387,1.783 20.528,2.505 Z"/>
<path fill-rule="evenodd"  fill="rgb(88, 107, 121)"
 d="M20.528,2.505 C19.669,3.228 19.254,3.242 18.809,3.525 C18.470,3.741 16.845,4.375 15.985,4.998 C15.132,4.375 13.517,3.741 13.181,3.525 C12.739,3.242 12.327,3.228 11.474,2.505 C10.620,1.783 11.230,0.806 11.230,0.806 L11.469,0.287 C11.780,0.920 12.265,1.625 13.000,2.000 C14.531,2.781 16.031,3.500 16.000,4.000 C15.966,3.500 17.593,2.781 19.254,2.000 C20.172,1.568 20.373,0.705 20.377,0.012 L20.405,0.012 L20.774,0.806 C20.774,0.806 21.387,1.783 20.528,2.505 Z"/>
<path fill-rule="evenodd"  fill="rgb(75, 91, 103)"
 d="M0.572,9.997 C1.729,10.043 4.416,10.445 6.330,12.977 C6.042,13.482 5.796,13.926 5.735,14.033 C5.583,14.300 4.955,13.788 4.955,13.788 C3.786,12.680 1.252,11.799 0.537,11.573 C-0.177,11.348 0.018,11.081 0.018,11.081 L0.572,9.997 Z"/>
<path fill-rule="evenodd"  fill="rgb(75, 91, 103)"
 d="M26.265,14.033 C26.204,13.926 25.958,13.482 25.670,12.977 C27.584,10.445 30.271,10.043 31.428,9.997 L31.982,11.081 C31.982,11.081 32.177,11.348 31.463,11.573 C30.748,11.799 28.214,12.680 27.045,13.788 C27.045,13.788 26.417,14.300 26.265,14.033 Z"/>
<path fill-rule="evenodd"  opacity="0.149" fill="rgb(0, 0, 0)"
 d="M8.074,16.124 C7.928,15.623 7.825,15.109 7.749,14.616 C8.585,15.885 9.840,19.780 9.985,31.685 C9.716,31.664 9.464,31.644 9.243,31.623 C7.398,31.451 7.294,31.254 7.294,31.254 L7.294,30.639 C7.398,28.573 7.944,26.334 7.944,26.334 C8.983,21.979 8.619,17.994 8.074,16.124 Z"/>
<path fill-rule="evenodd"  opacity="0.149" fill="rgb(0, 0, 0)"
 d="M24.207,14.651 C24.131,15.143 24.029,15.656 23.883,16.156 C23.338,18.023 22.975,22.001 24.012,26.348 C24.012,26.348 24.557,28.582 24.661,30.645 L24.661,31.259 C24.661,31.259 24.557,31.455 22.715,31.627 C22.495,31.648 22.243,31.668 21.975,31.689 C22.120,19.806 23.372,15.917 24.207,14.651 Z"/>
<path fill-rule="evenodd"  opacity="0.149" fill="rgb(0, 0, 0)"
 d="M7.000,10.000 C7.000,10.000 10.906,15.000 15.000,15.000 C15.000,15.000 12.253,15.846 8.036,15.974 C7.534,14.144 7.554,12.158 7.554,11.943 C7.554,11.721 7.424,11.204 7.424,11.204 C7.350,11.274 7.190,11.520 7.000,11.831 L7.000,10.000 Z"/>
<path fill-rule="evenodd"  opacity="0.149" fill="rgb(0, 0, 0)"
 d="M24.930,10.000 L24.930,11.831 C24.741,11.520 24.581,11.274 24.507,11.204 C24.507,11.204 24.377,11.721 24.377,11.943 C24.377,12.158 24.398,14.144 23.897,15.974 C19.690,15.846 16.951,15.000 16.951,15.000 C21.034,15.000 24.930,10.000 24.930,10.000 Z"/>
</svg>
