<svg
 xmlns="http://www.w3.org/2000/svg"
 xmlns:xlink="http://www.w3.org/1999/xlink"
 width="20px" height="17px">
<path fill-rule="evenodd"  fill="rgb(32, 32, 32)"
 d="M18.590,8.645 C18.101,8.929 17.474,8.760 17.192,8.269 L16.680,7.378 C16.397,6.886 16.565,6.257 17.054,5.973 C17.544,5.689 18.170,5.857 18.453,6.350 L18.965,7.240 C19.248,7.732 19.080,8.361 18.590,8.645 ZM13.644,10.325 L13.132,9.434 C12.850,8.943 13.017,8.314 13.507,8.030 C13.997,7.746 14.623,7.914 14.906,8.406 L15.418,9.297 C15.701,9.789 15.533,10.417 15.043,10.702 C14.553,10.986 13.927,10.817 13.644,10.325 ZM10.097,12.382 L9.585,11.491 C9.302,10.999 9.470,10.370 9.960,10.086 C10.450,9.803 11.076,9.971 11.359,10.463 L11.871,11.353 C12.153,11.846 11.986,12.474 11.496,12.758 C11.006,13.042 10.380,12.874 10.097,12.382 ZM6.550,14.439 L6.038,13.548 C5.755,13.056 5.923,12.427 6.413,12.143 C6.903,11.859 7.529,12.028 7.812,12.520 L8.324,13.410 C8.606,13.902 8.439,14.531 7.949,14.815 C7.459,15.099 6.833,14.930 6.550,14.439 ZM3.003,16.495 L2.491,15.605 C2.208,15.113 2.376,14.484 2.865,14.200 C3.355,13.916 3.981,14.084 4.264,14.576 L4.776,15.467 C5.059,15.959 4.891,16.588 4.401,16.872 C3.912,17.155 3.285,16.987 3.003,16.495 Z"/>
<path fill-rule="evenodd"  fill="rgb(111, 111, 111)"
 d="M15.577,0.747 C15.577,0.747 15.805,-0.276 16.679,0.108 C17.553,0.492 19.149,3.411 19.715,4.537 C20.280,5.663 20.460,6.543 15.544,9.206 C10.628,11.869 2.690,16.658 2.690,16.658 C2.690,16.658 0.857,17.018 0.251,15.822 C-0.355,14.626 0.169,13.479 1.241,12.435 C2.314,11.391 4.860,8.508 6.894,3.530 C6.894,3.530 7.505,0.972 8.855,1.831 C10.206,2.688 11.808,4.057 13.859,2.868 C15.909,1.679 15.577,0.747 15.577,0.747 Z"/>
<path fill-rule="evenodd"  fill="rgb(255, 255, 255)"
 d="M1.686,8.107 C1.759,7.833 2.039,7.670 2.313,7.744 L7.258,9.074 C7.531,9.148 7.693,9.430 7.620,9.704 C7.547,9.978 7.266,10.141 6.993,10.068 L2.048,8.737 C1.774,8.663 1.612,8.381 1.686,8.107 Z"/>
<path fill-rule="evenodd"  fill="rgb(255, 255, 255)"
 d="M2.216,6.121 C2.289,5.846 2.569,5.683 2.843,5.757 L7.788,7.088 C8.061,7.161 8.223,7.443 8.150,7.718 C8.077,7.992 7.796,8.155 7.523,8.081 L2.578,6.750 C2.304,6.677 2.142,6.395 2.216,6.121 Z"/>
<path fill-rule="evenodd"  fill="rgb(255, 255, 255)"
 d="M2.746,4.134 C2.819,3.860 3.100,3.697 3.373,3.770 L8.318,5.101 C8.591,5.175 8.754,5.457 8.680,5.731 C8.607,6.005 8.326,6.168 8.053,6.094 L3.108,4.764 C2.835,4.690 2.672,4.408 2.746,4.134 Z"/>
<path fill-rule="evenodd"  fill="rgb(255, 255, 255)"
 d="M14.700,4.963 L15.587,4.449 C15.832,4.307 16.145,4.391 16.286,4.637 C16.428,4.883 16.344,5.198 16.099,5.340 L15.212,5.854 C14.967,5.996 14.654,5.912 14.513,5.666 C14.371,5.419 14.455,5.105 14.700,4.963 Z"/>
</svg>
