<svg
 xmlns="http://www.w3.org/2000/svg"
 xmlns:xlink="http://www.w3.org/1999/xlink"
 width="16px" height="17px">
<path fill-rule="evenodd"  fill="rgb(165, 174, 184)"
 d="M8.711,12.054 L3.384,16.992 C3.384,16.992 2.542,16.771 1.265,16.387 C-0.012,16.003 0.143,15.125 0.143,15.125 L6.559,4.040 L8.711,12.054 Z"/>
<path fill-rule="evenodd"  fill="rgb(198, 206, 215)"
 d="M6.024,4.964 C7.500,2.413 10.770,1.539 13.327,3.011 C15.884,4.484 16.760,7.746 15.284,10.297 C13.807,12.848 10.538,13.722 7.981,12.249 C5.424,10.777 4.548,7.515 6.024,4.964 Z"/>
<path fill-rule="evenodd"  fill="rgb(150, 160, 171)"
 d="M7.876,6.030 C8.762,4.500 10.723,3.975 12.258,4.859 C13.792,5.743 14.317,7.700 13.432,9.230 C12.546,10.761 10.584,11.285 9.050,10.402 C7.516,9.518 6.990,7.561 7.876,6.030 Z"/>
<path fill-rule="evenodd"  fill="rgb(198, 206, 215)"
 d="M8.430,0.807 C8.873,0.041 9.853,-0.221 10.621,0.221 C11.388,0.663 11.651,1.642 11.208,2.407 C10.765,3.172 9.784,3.434 9.017,2.992 C8.250,2.551 7.987,1.572 8.430,0.807 Z"/>
</svg>
