<svg
 xmlns="http://www.w3.org/2000/svg"
 xmlns:xlink="http://www.w3.org/1999/xlink"
 width="17px" height="19px">
<path fill-rule="evenodd"  fill="rgb(186, 193, 200)"
 d="M8.000,2.999 C12.418,2.999 16.000,6.581 16.000,10.999 C16.000,15.417 12.418,18.999 8.000,18.999 C3.581,18.999 -0.000,15.417 -0.000,10.999 C-0.000,6.581 3.581,2.999 8.000,2.999 Z"/>
<path fill-rule="evenodd"  fill="rgb(248, 250, 252)"
 d="M7.997,3.995 C11.864,3.995 14.999,7.130 14.999,10.997 C14.999,14.863 11.864,17.998 7.997,17.998 C4.131,17.998 0.996,14.863 0.996,10.997 C0.996,7.130 4.131,3.995 7.997,3.995 Z"/>
<path fill-rule="evenodd"  fill="rgb(144, 153, 162)"
 d="M7.000,0.999 L9.000,0.999 L9.000,2.999 L7.000,2.999 L7.000,0.999 Z"/>
<path fill-rule="evenodd"  fill="rgb(186, 193, 200)"
 d="M5.000,-0.000 L11.000,-0.000 L11.000,2.000 L5.000,2.000 L5.000,-0.000 Z"/>
<path fill-rule="evenodd"  fill="rgb(163, 171, 179)"
 d="M12.967,2.016 L16.206,4.363 L15.033,5.982 L11.794,3.636 L12.967,2.016 Z"/>
<path fill-rule="evenodd"  fill="rgb(239, 58, 58)"
 d="M11.621,7.878 C11.816,8.074 11.816,8.390 11.621,8.585 L8.086,12.121 C7.890,12.316 7.574,12.316 7.379,12.121 C7.183,11.926 7.183,11.609 7.379,11.414 L10.914,7.878 C11.109,7.683 11.426,7.683 11.621,7.878 Z"/>
</svg>
