<svg width="18" height="17" viewBox="0 0 18 17" fill="none" xmlns="http://www.w3.org/2000/svg">
<path fill-rule="evenodd" clip-rule="evenodd" d="M4 1.99899H14C15.104 1.99899 16 3.05699 16 4.36299V14.636C16 15.941 15.104 16.999 14 16.999H4C2.895 16.999 2 15.941 2 14.636V4.36299C2 3.05699 2.895 1.99899 4 1.99899Z" fill="#E3E3E3"/>
<path fill-rule="evenodd" clip-rule="evenodd" d="M2 4C2 2.89543 2.89543 2 4 2H14C15.1046 2 16 2.89543 16 4V5H2V4Z" fill="#40ACFF"/>
<path fill-rule="evenodd" clip-rule="evenodd" d="M4 7.99899H6V9.99999H4V7.99899Z" fill="#B6B6B6"/>
<path fill-rule="evenodd" clip-rule="evenodd" d="M8 7.99899H10V9.99999H8V7.99899Z" fill="#B6B6B6"/>
<path fill-rule="evenodd" clip-rule="evenodd" d="M12 7.99899H14V9.99999H12V7.99899Z" fill="#B6B6B6"/>
<path fill-rule="evenodd" clip-rule="evenodd" d="M4 12H6V14H4V12Z" fill="#B6B6B6"/>
<path fill-rule="evenodd" clip-rule="evenodd" d="M8 12H10V14H8V12Z" fill="#B6B6B6"/>
<path fill-rule="evenodd" clip-rule="evenodd" d="M12 12H14V14H12V12Z" fill="#B6B6B6"/>
</svg>
