<svg
 xmlns="http://www.w3.org/2000/svg"
 xmlns:xlink="http://www.w3.org/1999/xlink"
 width="16px" height="16px">
<path fill-rule="evenodd"  fill="rgb(229, 68, 68)"
 d="M8.000,-0.001 C12.418,-0.001 16.000,3.581 16.000,7.999 C16.000,12.417 12.418,15.999 8.000,15.999 C3.581,15.999 -0.000,12.417 -0.000,7.999 C-0.000,3.581 3.581,-0.001 8.000,-0.001 Z"/>
<path fill-rule="evenodd"  fill="rgb(255, 83, 83)"
 d="M7.997,0.995 C11.864,0.995 14.999,4.130 14.999,7.997 C14.999,11.863 11.864,14.998 7.997,14.998 C4.131,14.998 0.996,11.863 0.996,7.997 C0.996,4.130 4.131,0.995 7.997,0.995 Z"/>
<path fill-rule="evenodd"  fill="rgb(255, 255, 255)"
 d="M12.000,9.000 L9.000,9.000 L9.000,12.000 L7.000,12.000 L7.000,9.000 L4.000,9.000 L4.000,7.000 L7.000,7.000 L7.000,4.000 L9.000,4.000 L9.000,7.000 L12.000,7.000 L12.000,9.000 Z"/>
</svg>
